# xmcd CD database file
#
# Track frame offsets:
#	150
#	15961
#	28959
#	43703
#	59561
#	75033
#	91376
#	105314
#	121961
#	139867
#	154724
#	169473
#	183665
#	198688
#
# Disc length: 2850 seconds
#
# Revision: 1
# Processed by: cddbd v1.5.2PL0 Copyright (c) Steve Scherf et al.
# Submitted via: CDex 1.51
#
DISCID=b60b200e
DTITLE=Truck Stop - Wir sind alle Cowboys CD1
DYEAR=2009
DGENRE=Country
TTITLE0=Trucker lieben die Freiheit
TTITLE1=Trucker, Cowboy, Mann
TTITLE2=Leb dein Leben
TTITLE3=Gegen den Wind
TTITLE4=Alles Bingo
TTITLE5=Silverado
TTITLE6=Schottischer Whisky
TTITLE7=Alabama  Moon
TTITLE8=Kleine Cowboys werden gross
TTITLE9=Hinterm Lenker
TTITLE10=Emmylou, Emmylou
TTITLE11=Die Lady und der Tramp
TTITLE12=Trucker bleibt Trucker
TTITLE13=Herz aus Gold
EXTD=YEAR: 2009
EXTT0=
EXTT1=
EXTT2=
EXTT3=
EXTT4=
EXTT5=
EXTT6=
EXTT7=
EXTT8=
EXTT9=
EXTT10=
EXTT11=
EXTT12=
EXTT13=
PLAYORDER=
